<?xml version="1.0" encoding="UTF-8"?>
<svg width="88px" height="87px" viewBox="0 0 88 87" version="1.1" xmlns="http://www.w3.org/2000/svg" xmlns:xlink="http://www.w3.org/1999/xlink">
    <!-- Generator: Sketch 64 (93537) - https://sketch.com -->
    <title>Blowdryer</title>
    <desc>Created with Sketch.</desc>
    <g id="Page-1" stroke="none" stroke-width="1" fill="none" fill-rule="evenodd">
        <g id="Desktop" transform="translate(-335.000000, -202.000000)">
            <g id="Blowdryer" transform="translate(335.000000, 202.000000)">
                <path d="M24.7945112,0.0174155917 C36.3504448,0.564798633 68.3425324,6.24596637 83.3881822,8.75251734 C84.2467125,8.8955454 85.0383678,9.46600984 85.9853739,10.1925765 C87.3959665,11.2748183 87.3959665,41.848622 85.9853739,42.4855412 C83.1368636,43.7717175 69.0454169,45.964181 43.7110337,49.0629317 L43.7097817,72.7248121 L43.7097817,72.7248121 C43.7097817,75.4862358 41.4712054,77.7248121 38.7097817,77.7248121 L34.709,77.724 L34.7097817,82.2248121 L34.7097817,82.2248121 C34.7097817,84.7100935 32.6950631,86.7248121 30.2097817,86.7248121 C27.7245003,86.7248121 25.7097817,84.7100935 25.7097817,82.2248121 L25.709,77.724 L21.7097817,77.7248121 C18.9483579,77.7248121 16.7097817,75.4862358 16.7097817,72.7248121 L16.709,50.454 L16.5659593,50.387484 C9.29458876,46.9556628 4.277693,41.8187153 1.51527203,34.9766414 C-0.567724039,29.817394 -0.945575026,20.5004236 3.24760131,13.0789789 C7.58534039,5.40167455 16.8536099,-0.358730107 24.7945112,0.0174155917 Z" id="Combined-Shape" fill="#F0B49F"></path>
                <ellipse id="Oval" fill="#FDD2C3" cx="26.2097817" cy="25.7248121" rx="13.5" ry="13"></ellipse>
            </g>
        </g>
    </g>
</svg>