<?xml version="1.0" encoding="UTF-8"?>
<svg width="35px" height="17px" viewBox="0 0 35 17" version="1.1" xmlns="http://www.w3.org/2000/svg" xmlns:xlink="http://www.w3.org/1999/xlink">
    <!-- Generator: Sketch 64 (93537) - https://sketch.com -->
    <title>crown_icon</title>
    <desc>Created with Sketch.</desc>
    <g id="Joining-As" stroke="none" stroke-width="1" fill="none" fill-rule="evenodd">
        <g id="Artboard" transform="translate(-265.000000, -440.000000)" fill="#403E4A">
            <path d="M265,445.716113 L267.548728,456.25 L297.834954,456.25 L300,445.716113 C298.154492,444.634509 296.573342,444.541724 295.256551,445.437758 C294.396952,446.022687 293.875039,446.915551 293.192163,447.437153 C292.305927,448.114087 291.343182,448.347676 291.025953,448.347676 C290.648438,448.347676 289.745303,448.283159 288.643698,447.055962 C288.106343,446.457343 287.441133,445.275248 287.010617,444.314447 C285.764096,441.53254 284.420231,440.09494 282.979021,440.001647 C281.906817,439.977957 281.036356,440.209826 280.367638,440.697254 C279.591226,441.26318 278.83151,442.788653 278.665045,443.065821 C278.328053,443.626921 276.732199,446.833647 276.225237,447.437153 C275.507869,448.291133 274.653961,448.713933 273.663512,448.705553 C273.013567,448.541561 272.552592,448.383614 272.280588,448.231712 C271.980712,448.064245 271.497805,447.630383 271.322928,447.437153 C270.849444,446.913979 270.232055,446.202695 269.814664,445.834828 C269.795155,445.817634 269.420104,445.452831 269.394921,445.437758 C268.668684,445.003089 267.916948,444.7716 267.139713,444.74329 C266.695843,444.822177 266.332128,444.922745 266.048567,445.044994 C265.765007,445.167243 265.415485,445.39095 265,445.716113 Z" id="crown_icon"></path>
        </g>
    </g>
</svg>