<?xml version="1.0" encoding="UTF-8"?>
<svg width="16px" height="29px" viewBox="0 0 16 29" version="1.1" xmlns="http://www.w3.org/2000/svg" xmlns:xlink="http://www.w3.org/1999/xlink">
    <!-- Generator: Sketch 56.3 (81716) - https://sketch.com -->
    <title>next</title>
    <desc>Created with Sketch.</desc>
    <g id="Scheduler" stroke="none" stroke-width="1" fill="none" fill-rule="evenodd">
        <g id="Mobile" transform="translate(-375.000000, -13.000000)" fill="#000000" fill-rule="nonzero">
            <g id="next" transform="translate(375.000000, 13.000000)">
                <path d="M0.271275203,28.756528 C0.431374619,28.9111701 0.648928238,28.9987089 0.876270997,29 C1.10430483,29.0020104 1.32314421,28.9139542 1.48126679,28.756528 L15.7470676,15.089272 C15.9089023,14.9362542 16,14.7274974 16,14.5096597 C16,14.2918221 15.9089023,14.0830653 15.7470676,13.9300475 L1.48126679,0.259893412 C1.26768077,0.0411475703 0.946608275,-0.0486473204 0.643728494,0.0256576527 C0.340848713,0.0999626258 0.104340396,0.326547853 0.0267813058,0.616719823 C-0.0507777845,0.906891792 0.0429495899,1.21449317 0.271275203,1.41911784 L13.9320802,14.5096597 L0.271275203,27.5973036 C0.110192819,27.7507065 0.0196164288,27.9593191 0.0196164288,28.1769158 C0.0196164288,28.3945125 0.110192819,28.6031251 0.271275203,28.756528 L0.271275203,28.756528 Z" id="Path"></path>
            </g>
        </g>
    </g>
</svg>