<?xml version="1.0" encoding="UTF-8"?>
<svg width="24px" height="51px" viewBox="0 0 24 51" version="1.1" xmlns="http://www.w3.org/2000/svg" xmlns:xlink="http://www.w3.org/1999/xlink">
    <!-- Generator: Sketch 64 (93537) - https://sketch.com -->
    <title>lipstick</title>
    <desc>Created with Sketch.</desc>
    <g id="Hero" stroke="none" stroke-width="1" fill="none" fill-rule="evenodd">
        <g id="Artboard" transform="translate(-91.000000, -52.000000)">
            <g id="lipandbrush" transform="translate(63.000000, 50.000000)">
                <g id="lipstick" transform="translate(42.001121, 26.324895) rotate(12.000000) translate(-42.001121, -26.324895) translate(33.001121, 1.324895)">
                    <path d="M2.16,28.5714286 L15.84,28.5714286 C17.032935,28.5714286 18,29.5308184 18,30.7142857 L18,47.8571429 C18,49.0406101 17.032935,50 15.84,50 L2.16,50 C0.96706494,50 0,49.0406101 0,47.8571429 L0,30.7142857 C0,29.5308184 0.96706494,28.5714286 2.16,28.5714286 Z" id="Path" fill="#403E4A"></path>
                    <path d="M3.6,14.2857143 L14.4,14.2857143 C15.592935,14.2857143 16.56,15.2451041 16.56,16.4285714 L16.56,26.4285714 C16.56,27.6120387 15.592935,28.5714286 14.4,28.5714286 L3.6,28.5714286 C2.40706494,28.5714286 1.44,27.6120387 1.44,26.4285714 L1.44,16.4285714 C1.44,15.2451041 2.40706494,14.2857143 3.6,14.2857143 Z" id="Rectangle" fill="#6E6D6F"></path>
                    <path d="M4.02777912,14.5119935 C3.96625915,10.098484 3.97353274,7.50627229 4.04959988,6.73535837 C4.16370059,5.57898752 4.4865028,5.42029171 4.99225489,4.73736804 C6.10624961,3.23312639 7.87423745,1.81397714 9.40427129,1.02175472 C11.2290576,0.0769150879 12.37647,0.239677365 12.9377823,0.526221025 C13.0988758,0.608457465 13.2870558,0.720058571 13.4231442,0.856237764 C13.605015,1.03822992 13.6266156,1.10463723 13.6349869,1.11819667 C13.6433583,1.13175611 13.6921581,1.18680074 13.7560541,1.34028414 C13.8199501,1.49376754 13.84032,1.52984588 13.8613506,1.65240706 C13.8829188,1.77810109 13.8979819,2.01076321 13.90654,2.35039344 L13.9622881,14.3854357 L4.02777912,14.5119935 Z" id="Path-3" fill="#B38184"></path>
                </g>
            </g>
        </g>
    </g>
</svg>