<?xml version="1.0" encoding="UTF-8"?>
<svg width="42px" height="42px" viewBox="0 0 42 42" version="1.1" xmlns="http://www.w3.org/2000/svg" xmlns:xlink="http://www.w3.org/1999/xlink">
    <!-- Generator: Sketch 64 (93537) - https://sketch.com -->
    <title>stars_icon</title>
    <desc>Created with Sketch.</desc>
    <g id="Joining-As" stroke="none" stroke-width="1" fill="none" fill-rule="evenodd">
        <g id="Artboard" transform="translate(-95.000000, -433.000000)" fill="#403E4A">
            <g id="stars_icon" transform="translate(94.000000, 431.000000)">
                <polygon id="Star" transform="translate(10.105785, 10.001114) rotate(-8.000000) translate(-10.105785, -10.001114) " points="10.5545483 15.1705569 5.40778693 18.0022271 5.61374053 11.8716028 2 8.31814216 7.47600202 7.05192148 9.90652798 2 12.43725 6.6906794 18.2115706 7.81145464 14.8029323 12.678852 15.3496855 17.8783239"></polygon>
                <polygon id="Star-Copy" transform="translate(34.105785, 17.001114) rotate(6.000000) translate(-34.105785, -17.001114) " points="34.5545483 22.1705569 29.4077869 25.0022271 29.6137405 18.8716028 26 15.3181422 31.476002 14.0519215 33.906528 9 36.43725 13.6906794 42.2115706 14.8114546 38.8029323 19.678852 39.3496855 24.8783239"></polygon>
                <polygon id="Star-Copy-2" transform="translate(18.105785, 35.001114) rotate(-8.000000) translate(-18.105785, -35.001114) " points="18.5545483 40.1705569 13.4077869 43.0022271 13.6137405 36.8716028 10 33.3181422 15.476002 32.0519215 17.906528 27 20.43725 31.6906794 26.2115706 32.8114546 22.8029323 37.678852 23.3496855 42.8783239"></polygon>
            </g>
        </g>
    </g>
</svg>