<?xml version="1.0" encoding="UTF-8"?>
<svg width="30px" height="37px" viewBox="0 0 30 37" version="1.1" xmlns="http://www.w3.org/2000/svg" xmlns:xlink="http://www.w3.org/1999/xlink">
    <!-- Generator: Sketch 64 (93537) - https://sketch.com -->
    <title>tube</title>
    <desc>Created with Sketch.</desc>
    <g id="Hero" stroke="none" stroke-width="1" fill="none" fill-rule="evenodd">
        <g id="Artboard" transform="translate(-266.000000, -331.000000)">
            <g id="Group-2" transform="translate(231.000000, 284.000000)">
                <g id="tube" transform="translate(48.170980, 67.034139) rotate(32.000000) translate(-48.170980, -67.034139) translate(39.170980, 49.034139)">
                    <path d="M1.49505119,7.10542736e-15 L16.5051719,7.10542736e-15 C17.333599,6.50915855e-15 18.0051719,0.671572875 18.0051719,1.5 C18.0051719,1.57655235 17.9993116,1.65299237 17.9876425,1.72865011 L13.8232746,28.7286501 C13.7104526,29.4601409 13.0809442,30 12.340804,30 L5.65941904,30 C4.91927882,30 4.28977052,29.4601409 4.17694842,28.7286501 L0.0125805776,1.72865011 C-0.113699391,0.909904197 0.44765517,0.143809353 1.26640108,0.017529384 C1.34205882,0.00586024914 1.41849885,7.56357901e-15 1.49505119,7.10542736e-15 Z" id="Rectangle" fill="#D8CCC7"></path>
                    <rect id="Rectangle" fill="#6E6D6F" x="5.1" y="30" width="7.5" height="6" rx="0.9"></rect>
                </g>
            </g>
        </g>
    </g>
</svg>